<?xml version="1.0" encoding="UTF-8"?>
<svg version="1.1" xmlns="http://www.w3.org/2000/svg" width="1135" height="84">
<path d="M0 0 C4.24710679 0.00288727 8.49421376 0.00488021 12.74132109 0.00679159 C29.82090888 0.01487666 46.90043981 0.03487583 63.97999716 0.07001925 C67.48076109 0.07688556 70.98152519 0.08248527 74.4822917 0.08785772 C79.85850154 0.09666701 85.23467262 0.11076332 90.61085808 0.12913096 C92.5316689 0.13507449 94.45248516 0.13951912 96.37330329 0.14220846 C105.74119472 0.15674165 115.10370643 0.26702163 124.46491194 0.63884497 C125.24217137 0.66064343 126.01943079 0.6824419 126.82024354 0.70490092 C131.55356619 0.92881562 134.96301073 1.71114456 139.059196 4.31528234 C141.48864759 7.95945974 141.22099174 10.02769506 141.059196 14.31528234 C142.317321 14.25340734 143.575446 14.19153234 144.871696 14.12778234 C147.37433427 14.00470177 148.60037937 13.98900294 150.66162825 15.45482397 C152.65804978 18.11248344 152.44703185 20.07258639 152.46324873 23.37558508 C152.4759329 24.62375509 152.48861708 25.87192511 152.50168562 27.15791845 C152.49963409 28.52157268 152.496646 29.88522578 152.49278975 31.24887609 C152.49735075 32.64748403 152.50265608 34.04608971 152.50867414 35.44469213 C152.51760983 38.37601338 152.51517748 41.30706226 152.50524092 44.23837805 C152.49375454 47.99249139 152.51395378 51.74566365 152.54315805 55.49965334 C152.56151741 58.38820369 152.56122817 61.27652845 152.55552053 64.16512251 C152.55536726 65.54900002 152.56141669 66.93289276 152.57381201 68.31671476 C152.58871078 70.25295233 152.57542065 72.1893446 152.56090498 74.12558508 C152.56065573 75.77747084 152.56065573 75.77747084 152.56040144 77.46272802 C151.93671628 81.01236187 150.94021028 82.19815961 148.059196 84.31528234 C146.06354475 84.76506567 146.06354475 84.76506567 143.9197917 84.69345617 C119.7245305 83.89149669 95.53008119 83.21048939 71.324821 82.79965734 C70.1143718 82.77877113 68.9039226 82.75788492 67.65679312 82.7363658 C39.93801549 82.26167348 12.21857051 81.96948598 -15.503304 81.75278234 C-17.4569418 81.73727205 -17.4569418 81.73727205 -19.45004702 81.72144842 C-95.87822407 81.11638152 -172.30757419 81.09177172 -321.190804 81.69028234 C-322.12445646 81.69528014 -323.05810891 81.70027793 -324.02005386 81.70542717 C-373.23118273 81.96973542 -422.44123075 82.32428414 -471.65114832 82.75865126 C-547.56920724 83.42872025 -623.4877127 84.07486667 -809.70114183 84.71108294 C-810.50975214 84.7121313 -811.31836244 84.71317967 -812.15147609 84.71425981 C-818.74219795 84.72277208 -818.74219795 84.72277208 -821.9150846 84.72675443 C-834.00900779 84.74216622 -846.10284653 84.77095011 -858.19672441 84.80701208 C-871.89771243 84.8477468 -885.59859434 84.87047336 -899.29964584 84.86877084 C-906.31956757 84.86830545 -913.33926623 84.87556483 -920.35913324 84.90477133 C-926.80383087 84.9315615 -933.24821353 84.93340416 -939.69295049 84.91734064 C-942.03420218 84.91556569 -944.3754782 84.92233027 -946.71667647 84.93824446 C-949.88878761 84.95852877 -953.05934951 84.94826274 -956.23143816 84.93001318 C-957.15229513 84.94321281 -958.0731521 84.95641245 -959.02191383 84.97001207 C-963.45994795 84.91131261 -965.3699315 84.74060046 -969.02810812 82.01514292 C-971.45517281 78.58922648 -971.34361764 76.42398146 -970.940804 72.31528234 C-972.198929 72.37715734 -973.457054 72.43903234 -974.753304 72.50278234 C-977.25563634 72.62584787 -978.48227928 72.64086885 -980.54422808 71.17673254 C-982.5427556 68.51296083 -982.32183109 66.54777196 -982.3289876 63.23911047 C-982.33844408 61.98771276 -982.34790056 60.73631506 -982.3576436 59.44699621 C-982.3522739 58.08017171 -982.34612095 56.71335009 -982.3392415 55.34653234 C-982.34126243 53.94552983 -982.34417403 52.54452833 -982.34793901 51.14352942 C-982.35236154 48.20800268 -982.34593396 45.27274989 -982.33191729 42.337255 C-982.31482501 38.57420818 -982.32466664 34.81180323 -982.34263468 31.04877996 C-982.3534747 28.15599241 -982.35002527 25.26335707 -982.3422513 22.37056494 C-982.34024988 20.98308248 -982.34270658 19.5955862 -982.34968996 18.20811987 C-982.35730706 16.269234 -982.34363894 14.33029969 -982.3289876 12.39145422 C-982.32660082 11.28797644 -982.32421404 10.18449865 -982.32175493 9.04758215 C-981.940804 6.31528234 -981.940804 6.31528234 -980.54154253 4.4980216 C-977.54988772 2.28757465 -975.75908676 2.22732164 -972.09363604 2.36948156 C-971.05628313 2.40640112 -970.01893023 2.44332067 -968.95014238 2.481359 C-967.21688707 2.54997137 -967.21688707 2.54997137 -965.4486165 2.61996984 C-962.87816932 2.71012924 -960.30769204 2.7994336 -957.73719072 2.88803625 C-957.04679705 2.91242521 -956.35640337 2.93681417 -955.64508867 2.9619422 C-872.32775149 5.9023487 -788.88051625 5.55572561 -705.52161455 5.40341711 C-704.80174863 5.4021219 -704.08188271 5.40082668 -703.34020267 5.39949222 C-669.24765425 5.33731475 -635.15601865 5.17144879 -601.06414822 4.95170268 C-598.64164524 4.9361355 -596.21914118 4.92074722 -593.79663682 4.90539622 C-539.8040838 4.56239904 -485.8150737 4.02987427 -431.82544395 3.37580493 C-428.16161169 3.33144111 -424.4977776 3.28722898 -420.83394356 3.24301214 C-412.4950074 3.14236319 -404.15607392 3.04149332 -395.81714201 2.94049311 C-394.8917767 2.92928579 -393.96641139 2.91807848 -393.01300471 2.90653155 C-388.31968509 2.84968197 -383.62636594 2.7927945 -378.93304741 2.73585498 C-180.55850802 0.32990168 -180.55850802 0.32990168 0 0 Z M141.059196 15.31528234 C141.05039663 16.30127165 141.05039663 16.30127165 141.04141951 17.30717993 C140.97758297 24.13658333 140.8931887 30.96551122 140.79674482 37.79453039 C140.7634499 40.34459691 140.73543237 42.89473793 140.71276045 45.44492102 C140.67929899 49.10645884 140.62698618 52.76731099 140.57091475 56.42856359 C140.56452482 57.57239004 140.5581349 58.71621649 140.55155134 59.89470434 C140.53175718 60.9555776 140.51196302 62.01645086 140.49156904 63.1094718 C140.48046598 64.04434927 140.46936293 64.97922674 140.45792341 65.94243383 C139.98565633 68.75292091 139.35471596 69.66508369 137.059196 71.31528234 C134.02965498 71.64121008 134.02965498 71.64121008 130.11778975 71.56137609 C129.38088408 71.54948751 128.6439784 71.53759893 127.88474226 71.52535009 C125.27536309 71.47521371 122.66776144 71.39739215 120.059196 71.31528234 C119.0688133 71.28621801 118.07843061 71.25715368 117.05803633 71.22720861 C107.55815833 70.94278769 98.0603755 70.59900091 88.5628581 70.24521399 C37.42220254 68.35788445 -13.74434405 68.14582021 -64.91290045 68.11540961 C-69.9382936 68.11231533 -74.96368393 68.10730775 -79.98907518 68.10201597 C-102.85102552 68.0783707 -125.71296389 68.06875477 -148.57492568 68.06640336 C-155.29328025 68.06567487 -162.01163426 68.06409881 -168.72998857 68.06215811 C-263.22878368 68.03603863 -357.72151095 68.23926969 -594.22989976 70.63583912 C-671.89034671 71.52061024 -749.55689101 72.27129273 -883.63038921 72.38731045 C-893.01639689 72.37542456 -902.40240622 72.37047082 -911.78841972 72.36560595 C-930.83922314 72.35560134 -949.89001223 72.33846837 -968.940804 72.31528234 C-969.40159421 76.92390091 -969.40159421 76.92390091 -967.72371548 81.02233046 C-965.41672792 82.69533776 -964.06448607 82.69019736 -961.22672033 82.69001245 C-960.24996001 82.69721868 -959.27319969 82.70442491 -958.26684058 82.71184951 C-957.18957642 82.70447554 -956.11231226 82.69710157 -955.00240374 82.68950415 C-953.85777159 82.69348139 -952.71313944 82.69745862 -951.53382146 82.70155638 C-948.3407846 82.70955079 -945.14809461 82.70398747 -941.95507751 82.69280994 C-938.49363405 82.6839406 -935.03222646 82.69233284 -931.57078314 82.69852209 C-924.72039643 82.70797788 -917.87011371 82.70114129 -911.01973471 82.68914596 C-902.88955691 82.67555101 -894.759407 82.67835499 -886.62922141 82.68143656 C-869.89590695 82.68701711 -853.16265376 82.67101021 -836.42935681 82.64843148 C-823.40962324 82.6310452 -810.38989928 82.62095612 -797.37015581 82.61484289 C-724.16101873 82.57872216 -650.95222639 82.49743543 -577.7454915 81.85825109 C-576.51975711 81.84755732 -575.29402272 81.83686355 -574.03114486 81.82584572 C-554.51535598 81.65454552 -534.9997052 81.46871114 -515.48407745 81.28005362 C-496.42939165 81.09587255 -477.37465244 80.9201851 -458.31971025 80.76450109 C-457.65855104 80.75909888 -456.99739183 80.75369666 -456.31619748 80.74813074 C-364.52860056 80.00199169 -272.73578034 80.11838259 -180.945863 80.12713683 C-172.90499069 80.1278202 -164.86411878 80.12758187 -156.82324648 80.12680578 C-129.42627301 80.12424228 -102.02931517 80.12865605 -74.63234522 80.14317224 C-67.58914744 80.14673174 -60.54595137 80.1481575 -53.50275278 80.14869642 C3.5207263 80.15494855 60.53021988 80.43218411 117.53439915 82.0766179 C120.29964873 82.1519729 123.06514419 82.20887633 125.83086348 82.26382971 C127.41688654 82.30045129 129.00271147 82.34613553 130.58830976 82.39798498 C133.19437578 82.481818 135.80000489 82.53924213 138.40685225 82.59262609 C139.21198759 82.62449514 140.01712294 82.65636419 140.84665632 82.68919897 C144.27282135 82.73735419 146.48518817 82.74773833 149.27342939 80.64708471 C151.49641252 77.74437766 151.56030769 76.22880316 151.56090498 72.60043859 C151.57028593 71.45244787 151.57966688 70.30445715 151.5893321 69.12167883 C151.57809813 67.88619299 151.56686415 66.65070715 151.55528975 65.37778234 C151.55674498 64.10555822 151.55820021 62.8333341 151.55969954 61.52255774 C151.55803917 58.83214862 151.54854743 56.14315227 151.52574873 53.45297766 C151.49736332 50.00949208 151.50010237 46.56689324 151.51283884 43.12334204 C151.52147678 39.83309851 151.50634618 36.54299813 151.49278975 33.25278234 C151.4971932 31.39955359 151.4971932 31.39955359 151.50168562 29.50888586 C151.48900145 28.36089514 151.47631727 27.21290442 151.46324873 26.03012609 C151.45784575 25.02070959 151.45244276 24.01129309 151.44687605 22.9712882 C150.99531213 19.87761237 150.27114029 18.507097 148.059196 16.31528234 C144.45453852 15.50213323 144.45453852 15.50213323 141.059196 15.31528234 Z " fill="#FF7600" transform="translate(981.9408040046692,-0.31528234481811523)"/>
<path d="M0 0 C7.48252533 -0.36799305 7.48252533 -0.36799305 9.60243225 1.13954163 C11.59885379 3.7972011 11.38783586 5.75730404 11.40405273 9.06030273 C11.41673691 10.30847275 11.42942108 11.55664276 11.44248962 12.84263611 C11.4404381 14.20629034 11.43745 15.56994343 11.43359375 16.93359375 C11.43815476 18.33220168 11.44346009 19.73080737 11.44947815 21.12940979 C11.45841383 24.06073103 11.45598148 26.99177992 11.44604492 29.9230957 C11.43455855 33.67720905 11.45475779 37.43038131 11.48396206 41.18437099 C11.50232142 44.07292134 11.50203218 46.9612461 11.49632454 49.84984016 C11.49617127 51.23371767 11.5022207 52.61761042 11.51461601 54.00143242 C11.52951478 55.93766998 11.51622465 57.87406226 11.50170898 59.81030273 C11.50145973 61.46218849 11.50145973 61.46218849 11.50120544 63.14744568 C10.87752028 66.69707952 9.88101429 67.88287726 7 70 C5.00434875 70.44978333 5.00434875 70.44978333 2.8605957 70.37817383 C-21.33466549 69.57621434 -45.5291148 68.89520704 -69.734375 68.484375 C-70.9448242 68.46348879 -72.1552734 68.44260258 -73.40240288 68.42108345 C-101.12118051 67.94639113 -128.84062549 67.65420363 -156.5625 67.4375 C-158.51613779 67.42198971 -158.51613779 67.42198971 -160.50924301 67.40616608 C-236.93742006 66.80109918 -313.36677018 66.77648938 -462.25 67.375 C-463.18365245 67.37999779 -464.11730491 67.38499558 -465.07924986 67.39014482 C-514.29037872 67.65445307 -563.50042674 68.0090018 -612.71034431 68.44336891 C-688.62840323 69.11343791 -764.5469087 69.75958433 -950.76033783 70.39580059 C-951.56894813 70.39684896 -952.37755844 70.39789733 -953.21067208 70.39897746 C-959.80139394 70.40748974 -959.80139394 70.40748974 -962.9742806 70.41147209 C-975.06820378 70.42688387 -987.16204253 70.45566777 -999.25592041 70.49172974 C-1012.95690842 70.53246446 -1026.65779033 70.55519102 -1040.35884184 70.55348849 C-1047.37876357 70.55302311 -1054.39846222 70.56028249 -1061.41832924 70.58948898 C-1067.86302686 70.61627915 -1074.30740952 70.61812182 -1080.75214648 70.60205829 C-1083.09339817 70.60028335 -1085.43467419 70.60704793 -1087.77587247 70.62296212 C-1090.94798361 70.64324642 -1094.1185455 70.6329804 -1097.29063416 70.61473083 C-1098.21149113 70.62793047 -1099.1323481 70.6411301 -1100.08110982 70.65472972 C-1104.51914395 70.59603027 -1106.42912749 70.42531811 -1110.08730412 67.69986057 C-1112.51436881 64.27394414 -1112.40281364 62.10869912 -1112 58 C-1111.34 58 -1110.68 58 -1110 58 C-1109.87625 59.11375 -1109.7525 60.2275 -1109.625 61.375 C-1109.3534187 65.03103677 -1109.3534187 65.03103677 -1107 67 C-1104.8863926 67.30282242 -1104.8863926 67.30282242 -1102.40896416 67.25168228 C-1101.43419489 67.25689746 -1100.45942562 67.26211264 -1099.45511788 67.26748586 C-1098.37494088 67.26302473 -1097.29476388 67.2585636 -1096.18185425 67.25396729 C-1094.46618766 67.25865151 -1094.46618766 67.25865151 -1092.71586114 67.26343036 C-1089.52063581 67.270065 -1086.32556088 67.26763648 -1083.13033913 67.26146197 C-1079.66820037 67.2569192 -1076.20608187 67.26383827 -1072.74394703 67.26927185 C-1065.89010453 67.27813593 -1059.03630515 67.27601719 -1052.18246095 67.27033338 C-1046.52352533 67.26590223 -1040.864604 67.26580432 -1035.2056675 67.26863861 C-1033.98769922 67.26924533 -1033.98769922 67.26924533 -1032.74512553 67.26986431 C-1031.0908035 67.27070556 -1029.43648149 67.27155489 -1027.78215947 67.27241215 C-1011.04162022 67.28049167 -994.30110706 67.27334673 -977.56057185 67.26113009 C-965.47190336 67.25237569 -953.38323956 67.24734139 -941.29456813 67.24515325 C-867.12913801 67.23131548 -792.96380724 67.19825379 -718.80078125 66.546875 C-716.96226617 66.53074783 -716.96226617 66.53074783 -715.08660936 66.51429486 C-695.57210108 66.34206212 -676.05774652 66.15396488 -656.5433979 65.96464682 C-637.48867473 65.7800559 -618.43389055 65.6047829 -599.37890625 65.44921875 C-598.71774447 65.4438191 -598.05658269 65.43841945 -597.3753857 65.43285617 C-505.58778714 64.68694104 -413.79497714 64.80310025 -322.005059 64.81185449 C-313.96418668 64.81253785 -305.92331477 64.81229952 -297.88244247 64.81152344 C-270.485469 64.80895994 -243.08851117 64.81337371 -215.69154121 64.82788989 C-208.64834343 64.83144939 -201.60514737 64.83287515 -194.56194878 64.83341408 C-137.53818672 64.83966623 -80.52894619 65.12031836 -23.52441537 66.76095408 C-20.76074198 66.83680213 -17.99687508 66.89736541 -15.23272705 66.95294189 C-13.63997894 66.98651147 -12.04732985 67.02492418 -10.45477295 67.06658936 C-7.83317764 67.13150987 -5.21193242 67.1753402 -2.58984375 67.21484375 C-1.36957237 67.25007896 -1.36957237 67.25007896 -0.12464905 67.286026 C4.016838 67.42128728 4.016838 67.42128728 7.71621704 65.83180237 C9.50393977 63.28093915 9.37423832 61.48414897 9.37231445 58.3828125 C9.37854324 57.23151855 9.38477203 56.08022461 9.39118958 54.89404297 C9.38197983 53.65025879 9.37277008 52.40647461 9.36328125 51.125 C9.36402901 49.21098389 9.36402901 49.21098389 9.36479187 47.25830078 C9.36244926 44.55796249 9.35428305 41.8584057 9.33618164 39.15820312 C9.31349427 35.69792134 9.31295071 32.23807617 9.31969929 28.77774048 C9.32384507 25.47679409 9.31186649 22.17592519 9.30078125 18.875 C9.30169266 17.63121582 9.30260406 16.38743164 9.30354309 15.10595703 C9.28924507 13.37901611 9.28924507 13.37901611 9.2746582 11.6171875 C9.27005081 10.60253418 9.26544342 9.58788086 9.26069641 8.54248047 C9.17498956 5.75663627 9.17498956 5.75663627 7 3 C3.44327821 1.7811879 3.44327821 1.7811879 0 1 C0 0.67 0 0.34 0 0 Z " fill="#FFFFFF" transform="translate(1123,14)"/>
</svg>
